<?xml version="1.0" encoding="iso-8859-1"?>
<!-- Generator: Adobe Illustrator 19.0.0, SVG Export Plug-In . SVG Version: 6.00 Build 0)  -->
<svg version="1.1" id="Capa_1" xmlns="http://www.w3.org/2000/svg" xmlns:xlink="http://www.w3.org/1999/xlink" x="0px" y="0px"
	 viewBox="0 0 512 512" style="enable-background:new 0 0 512 512;" xml:space="preserve">
<path style="fill:#FF525D;" d="M512,256c0,141.385-114.615,256-256,256c-53.133,0-102.463-16.175-143.37-43.886
	c-9.592-6.489-18.714-13.615-27.314-21.326C32.956,399.924,0,331.807,0,256C0,138.021,79.809,38.672,188.395,9.028
	C209.93,3.135,232.594,0,256,0c43.886,0,85.191,11.045,121.292,30.501C457.498,73.738,512,158.501,512,256z"/>
<circle style="fill:#FF6E7C;" cx="256" cy="213.295" r="213.295"/>
<path style="fill:#FFD15C;" d="M236.899,194.424h156.066l-80.677,78.764L112.63,468.114c-9.592-6.489-18.714-13.615-27.314-21.326
	l49.476-109.986l28.191-62.673H33.332l47.689-81.533L188.395,9.028L193.672,0h209.627l-26.008,30.501l-69.099,80.677
	L236.899,194.424z"/>
<path style="fill:#4BC999;" d="M336.941,353.283v81.416c-38.153,0-62.9-0.207-78.853-4.795c-9.197-2.646-16.986-8.804-21.848-17.048
	l0,0c0-0.003,0-0.007-0.003-0.01c-3.045-8.424-7.864-27.793-0.494-42.342c4.882-9.642,17.375-9.923,21.144-17.22h80.055V353.283z"/>
<path style="fill:#1E9E67;" d="M269.975,254.485l40.618,81.233l-34.581-18.659c0,0-6.375,11.527-19.127,36.223
	c-3.769,7.297-8.095,15.747-12.976,25.389c-7.37,14.549-10.719,25.75-7.674,34.174l-42.862-72.682
	c-4.252-7.216-4.548-16.105-0.775-23.584l17.733-35.199l-32.016-18.663L269.975,254.485z"/>
<path style="fill:#4BC999;" d="M509.064,294.839c-3.135,20.647-8.746,40.469-16.509,59.183c-1.39,3.354-2.853,6.666-4.389,9.947
	c-3.406,1.306-6.98,2.163-10.658,2.361c-10.794,0.596-17.283-10.083-25.485-9.697l-40.03-69.329l70.51-40.709
	C493.913,266.355,502.868,282.008,509.064,294.839z"/>
<path style="fill:#1E9E67;" d="M492.554,354.022c-11.922,28.745-28.933,54.857-49.915,77.187l-29.602,1.693l-0.105,25.36
	c-1.776,1.39-3.584,2.748-5.402,4.086L359.915,394.7l50.04-75.797l1.139,39.278c0,0,13.166-0.24,40.929-1.546
	c8.202-0.387,17.69-0.867,28.473-1.463C484.874,354.931,488.897,354.565,492.554,354.022z"/>
<path style="fill:#4BC999;" d="M315.453,256.818l-70.509-40.708c19.077-33.042,31.629-54.369,43.58-65.891
	c6.89-6.642,16.118-10.308,25.687-10.397l0,0c0.003,0.002,0.006,0.004,0.011,0.002c8.818,1.576,28.001,7.085,36.917,20.743
	c5.91,9.049-0.093,20.009,4.342,26.922L315.453,256.818z"/>
<path style="fill:#1E9E67;" d="M434.498,248.223l-90.66-5.44l33.449-20.618c0,0-6.795-11.284-21.807-34.677
	c-4.435-6.912-9.589-14.884-15.499-23.931c-8.915-13.657-16.942-22.157-25.759-23.733l84.376-0.778
	c8.376-0.074,16.221,4.113,20.812,11.121l21.617,32.957l32.17-18.395L434.498,248.223z"/>
<g>
</g>
<g>
</g>
<g>
</g>
<g>
</g>
<g>
</g>
<g>
</g>
<g>
</g>
<g>
</g>
<g>
</g>
<g>
</g>
<g>
</g>
<g>
</g>
<g>
</g>
<g>
</g>
<g>
</g>
</svg>
