<?xml version="1.0" encoding="iso-8859-1"?>
<!-- Generator: Adobe Illustrator 19.0.0, SVG Export Plug-In . SVG Version: 6.00 Build 0)  -->
<svg version="1.1" id="Capa_1" xmlns="http://www.w3.org/2000/svg" xmlns:xlink="http://www.w3.org/1999/xlink" x="0px" y="0px"
	 viewBox="0 0 511.999 511.999" style="enable-background:new 0 0 511.999 511.999;" xml:space="preserve">
<circle style="fill:#494B5B;" cx="255.999" cy="255.999" r="255.999"/>
<circle style="fill:#5C5E70;" cx="255.999" cy="213.295" r="213.295"/>
<polygon style="fill:#494B5B;" points="487.239,265.205 334.266,265.205 334.266,150.653 452.434,150.653 "/>
<polygon style="fill:#5C5E70;" points="487.239,265.205 383.126,265.205 436.927,150.653 452.434,150.653 "/>
<path style="fill:#FF525D;" d="M496.518,232.667l-32.632-80.551c-3.218-7.952-10.94-13.155-19.529-13.155H316.66v225.394h171.352
	c3.553-7.607,6.75-15.423,9.561-23.416c0.219-0.616,0.428-1.223,0.637-1.839v-97.781
	C498.21,238.351,497.636,235.415,496.518,232.667z M450.459,241.486h-93.842c-8.861,0-16.05-7.189-16.05-16.05v-45.725
	c0-9.3,7.534-16.833,16.833-16.833h73.697c6.855,0,13.03,4.159,15.6,10.522l18.63,46.007
	C469.612,229.961,461.848,241.486,450.459,241.486z"/>
<path style="fill:#4BC999;" d="M316.649,364.355H23.995C8.604,331.451,0.004,294.723,0.004,255.999v-87.556l125.387-82.71h175.583
	c8.657,0,15.674,7.018,15.674,15.674V364.355z"/>
<path style="fill:#E8E8E8;" d="M497.573,340.939c-2.811,7.993-6.008,15.809-9.561,23.416h-62.088
	c-56.236,0-6.478-16.938-9.007-23.416H497.573z"/>
<circle style="fill:#494B5B;" cx="408" cy="364.481" r="52.151"/>
<circle style="fill:#E8E8E8;" cx="408" cy="364.481" r="30.185"/>
<circle style="fill:#494B5B;" cx="126.85" cy="364.481" r="52.151"/>
<g>
	<circle style="fill:#E8E8E8;" cx="126.85" cy="364.481" r="30.185"/>
	<path style="fill:#E8E8E8;" d="M495.279,317.571h2.932v-47.018h-2.932c-12.984,0-23.509,10.525-23.509,23.509l0,0
		C471.769,307.046,482.295,317.571,495.279,317.571z"/>
</g>
<path style="fill:#FFFFFF;" d="M152.917,251.334v44.099c-20.666,0-34.07-0.112-42.711-2.598c-4.982-1.433-9.2-4.769-11.833-9.234
	l0,0c0-0.002,0-0.004-0.002-0.006c-1.649-4.563-4.26-15.054-0.267-22.934c2.644-5.222,9.411-5.375,11.453-9.328h43.361V251.334z"/>
<path style="fill:#494B5B;" d="M116.646,197.82l22.001,44.001l-18.731-10.106c0,0-3.452,6.243-10.36,19.621
	c-2.042,3.952-4.384,8.528-7.028,13.752c-3.992,7.881-5.805,13.948-4.157,18.51L75.155,244.23c-2.303-3.909-2.464-8.723-0.42-12.775
	l9.605-19.065l-17.341-10.108L116.646,197.82z"/>
<path style="fill:#FFFFFF;" d="M193.571,215.595l38.191-22.049c10.333,17.897,16.938,29.561,19.106,38.287
	c1.25,5.031,0.47,10.352-2.079,14.865l0,0c-0.002,0.001-0.003,0.002-0.004,0.004c-3.127,3.709-10.908,11.216-19.729,11.7
	c-5.845,0.322-9.36-5.463-13.804-5.255L193.571,215.595z"/>
<path style="fill:#494B5B;" d="M165.363,273.765l27.105-41.054l0.612,21.274c0,0,7.133-0.132,22.172-0.838
	c4.444-0.208,9.579-0.467,15.424-0.789c8.821-0.484,14.982-1.947,18.109-5.656l-22.486,39.79c-2.233,3.949-6.323,6.495-10.853,6.751
	l-21.314,1.214l-0.084,20.072L165.363,273.765z"/>
<path style="fill:#FFFFFF;" d="M141.278,199.084l-38.191-22.049c10.333-17.897,17.132-29.449,23.605-35.691
	c3.731-3.598,8.73-5.583,13.914-5.631l0,0c0.002,0.001,0.003,0.002,0.006,0.001c4.776,0.854,15.167,3.838,19.996,11.236
	c3.201,4.902-0.05,10.838,2.351,14.582L141.278,199.084z"/>
<path style="fill:#494B5B;" d="M205.759,194.428l-49.106-2.947l18.117-11.168c0,0-3.681-6.112-11.811-18.783
	c-2.402-3.744-5.194-8.061-8.395-12.963c-4.828-7.398-9.176-12.002-13.952-12.855l45.702-0.422
	c4.537-0.041,8.787,2.228,11.273,6.024l11.709,17.851l17.425-9.963L205.759,194.428z"/>
<g>
</g>
<g>
</g>
<g>
</g>
<g>
</g>
<g>
</g>
<g>
</g>
<g>
</g>
<g>
</g>
<g>
</g>
<g>
</g>
<g>
</g>
<g>
</g>
<g>
</g>
<g>
</g>
<g>
</g>
</svg>
