<?xml version="1.0" encoding="iso-8859-1"?>
<!-- Generator: Adobe Illustrator 19.0.0, SVG Export Plug-In . SVG Version: 6.00 Build 0)  -->
<svg version="1.1" id="Capa_1" xmlns="http://www.w3.org/2000/svg" xmlns:xlink="http://www.w3.org/1999/xlink" x="0px" y="0px"
	 viewBox="0 0 512 512" style="enable-background:new 0 0 512 512;" xml:space="preserve">
<path style="fill:#34ABE0;" d="M512,256c0,122.608-86.194,225.092-201.3,250.138C293.073,509.983,274.777,512,256,512
	s-37.083-2.017-54.711-5.862C86.194,481.081,0,378.608,0,256C0,114.615,114.615,0,256,0S512,114.615,512,256z"/>
<circle style="fill:#72BBE8;" cx="256" cy="213.295" r="213.295"/>
<path style="fill:#E8E8E8;" d="M355.788,407.459c-57.559,37.747-131.531,40.103-191.684,5.216
	c-13.057-7.573-25.111-16.696-35.825-27.115l-25.852,26.584c12.894,12.538,27.386,23.509,43.073,32.608
	c34.312,19.901,72.355,29.733,110.268,29.733c43.569,0,86.96-13.003,124.275-38.631l10.798,12.642l3.714-50.491l-52.088-6.145
	L355.788,407.459z"/>
<path style="fill:#B58657;" d="M310.7,329.561v176.577C293.073,509.983,274.777,512,256,512c-7.126,0-14.19-0.293-21.18-0.867
	c-11.4-0.93-22.601-2.612-33.531-4.995V329.561H310.7z"/>
<path style="fill:#C69A6A;" d="M310.7,401.011v105.127C293.073,509.983,274.777,512,256,512c-7.126,0-14.19-0.293-21.18-0.867
	v-83.811c0-14.53,11.779-26.311,26.311-26.311L310.7,401.011L310.7,401.011z"/>
<path style="fill:#E8E8E8;" d="M160.368,99.068c12.877-7.885,26.637-14.147,40.894-18.612l-11.083-35.388
	c-17.159,5.375-33.703,12.902-49.174,22.373C68.3,111.958,28.3,193.79,37.256,277.971l-16.267,3.486l42.643,27.288l30.187-42.892
	l-20.057,4.297C67.942,201.563,101.061,135.379,160.368,99.068z"/>
<path style="fill:#41B787;" d="M448.324,191.916c0-4.326-0.94-8.422-2.633-12.1c-1.693-3.678-4.127-6.949-7.116-9.603
	c4.587-6.583,6.447-15.015,4.42-23.416h0.01c-1.014-4.211-2.894-7.983-5.402-11.17c-2.518-3.197-5.663-5.799-9.216-7.69
	c1.306-3.354,1.996-6.959,1.996-10.595c0-4.462-1.024-8.986-3.208-13.228c-1.975-3.845-4.692-7.064-7.879-9.571
	c-3.197-2.497-6.855-4.295-10.742-5.287c0.178-1.296,0.261-2.612,0.261-3.918c0-6.708-2.309-13.448-7.022-18.934
	c-2.811-3.271-6.207-5.768-9.895-7.45c-3.678-1.693-7.67-2.581-11.672-2.644c-0.408-3.981-1.62-7.868-3.626-11.4
	c-1.996-3.521-4.765-6.687-8.265-9.216c-5.141-3.699-11.076-5.486-16.959-5.486c-2.152,0-4.295,0.24-6.384,0.711
	c-1.327-3.783-3.417-7.293-6.196-10.25c-2.769-2.957-6.207-5.381-10.209-7.022c-3.594-1.463-7.314-2.163-10.971-2.163
	c-4.493,0-8.892,1.055-12.863,3.009c-2.006-3.093-4.598-5.799-7.638-7.941c-0.272-0.199-0.543-0.387-0.815-0.564
	c-3.396-2.226-7.304-3.783-11.588-4.42c-1.463-0.219-2.915-0.324-4.357-0.324c-6.938,0-13.458,2.487-18.557,6.74
	C256.554,3.009,249.48,0,241.821,0c-0.815,0-1.64,0.031-2.466,0.104c-4.305,0.366-8.307,1.661-11.839,3.668
	c-3.532,1.996-6.583,4.702-8.986,7.92c-4.368-2.529-9.362-3.908-14.514-3.908c-3.051,0-6.154,0.491-9.206,1.505
	c-4.106,1.369-7.701,3.574-10.658,6.353c-2.968,2.779-5.287,6.134-6.865,9.822c-2.664-0.784-5.423-1.181-8.213-1.181
	c-5.277,0-10.606,1.432-15.402,4.441c-3.668,2.299-6.635,5.266-8.861,8.662c-2.226,3.396-3.688,7.199-4.357,11.16
	c-0.481-0.021-0.961-0.031-1.442-0.031c-7.534,0-15.036,2.905-20.72,8.704c-5.538,5.653-8.296,12.999-8.296,20.323
	c0,0.679,0.031,1.358,0.073,2.027c-3.929,0.742-7.711,2.299-11.055,4.587c-3.344,2.288-6.259,5.319-8.474,9.028
	c-2.79,4.671-4.127,9.822-4.127,14.89c0,2.988,0.46,5.956,1.358,8.788c-3.657,1.651-6.969,4.044-9.686,7.064
	c-2.706,3.02-4.838,6.656-6.113,10.794c-0.888,2.863-1.317,5.768-1.317,8.62c0,5.371,1.505,10.564,4.211,15.047
	c-6.322,4.921-10.585,12.424-11.149,21.055h0.01c-0.042,0.648-0.063,1.285-0.063,1.912c0,7.879,3.187,15.099,8.391,20.365
	c-4.023,5.026-6.363,11.368-6.363,18.098c0,1.63,0.146,3.291,0.428,4.953c0.731,4.263,2.361,8.15,4.671,11.494
	c2.299,3.344,5.277,6.165,8.683,8.276c-1.797,3.835-2.748,8.046-2.748,12.34c0,3.845,0.763,7.764,2.393,11.515
	c1.724,3.96,4.221,7.356,7.252,10.062c3.02,2.706,6.562,4.744,10.376,5.987c-0.387,1.902-0.575,3.845-0.575,5.789
	c0,6.081,1.902,12.215,5.841,17.45c2.602,3.459,5.82,6.154,9.394,8.087c3.574,1.923,7.492,3.062,11.483,3.385
	c0.136,4.002,1.108,7.962,2.873,11.609c1.766,3.657,4.326,6.98,7.659,9.728c5.402,4.462,11.943,6.635,18.442,6.635
	c1.515,0,3.03-0.125,4.524-0.355c1.076,3.866,2.957,7.492,5.528,10.627c2.57,3.145,5.841,5.789,9.728,7.68
	c4.086,1.985,8.422,2.936,12.685,2.936c3.845,0,7.638-0.773,11.16-2.226c1.954,3.5,4.629,6.593,7.868,9.038
	c3.239,2.445,7.043,4.242,11.274,5.162c8.453,1.839,16.833-0.199,23.312-4.921c2.654,2.863,5.872,5.193,9.488,6.802
	c3.615,1.62,7.607,2.508,11.807,2.508c0.199,0,0.397,0,0.606-0.01c4.315-0.084,8.391-1.118,12.037-2.884
	c2.738-1.327,5.235-3.051,7.398-5.12c0.731-0.7,1.421-1.432,2.069-2.194c4.692,3.135,10.282,4.901,16.102,4.901
	c2.445,0,4.921-0.313,7.398-0.961c1.672-0.439,3.26-1.014,4.775-1.714c0.752-0.334,1.473-0.711,2.184-1.118
	c1.452-0.815,2.821-1.766,4.096-2.811c3.145-2.581,5.684-5.778,7.492-9.362c3.197,1.17,6.583,1.776,10.01,1.776
	c4.66,0,9.394-1.128,13.782-3.49c3.803-2.058,6.959-4.838,9.394-8.087c2.445-3.239,4.159-6.949,5.068-10.846
	c1.108,0.125,2.226,0.188,3.344,0.188c6.896,0,13.824-2.445,19.362-7.419c6.374-5.736,9.634-13.657,9.634-21.608v-0.157
	c3.971-0.481,7.837-1.787,11.327-3.866c3.49-2.069,6.583-4.911,9.038-8.464c3.469-5.026,5.141-10.762,5.141-16.447
	c0-2.351-0.282-4.692-0.846-6.969c3.762-1.411,7.21-3.584,10.115-6.426c2.905-2.832,5.266-6.322,6.813-10.355
	c1.317-3.417,1.933-6.938,1.933-10.397c0-4.712-1.149-9.31-3.281-13.416c3.312-2.257,6.165-5.183,8.317-8.62
	c2.163-3.438,3.626-7.387,4.18-11.682c0.167-1.264,0.24-2.518,0.24-3.751c0-3.051-0.481-6.029-1.379-8.829
	c0.878-1.87,1.567-3.856,2.027-5.914C448.073,196.263,448.324,194.111,448.324,191.916z"/>
<path style="fill:#4BC999;" d="M448.324,191.916c0-4.326-0.94-8.422-2.633-12.1c-1.693-3.678-4.127-6.949-7.116-9.603
	c4.587-6.583,6.447-15.015,4.42-23.416h0.01c-1.014-4.211-2.894-7.983-5.402-11.17c-2.518-3.197-5.663-5.799-9.216-7.69
	c1.306-3.354,1.996-6.959,1.996-10.595c0-4.462-1.024-8.986-3.208-13.228c-1.975-3.845-4.692-7.064-7.879-9.571
	c-3.197-2.497-6.855-4.295-10.742-5.287c0.178-1.296,0.261-2.612,0.261-3.918c0-6.708-2.309-13.448-7.022-18.934
	c-2.811-3.271-6.207-5.768-9.895-7.45c-3.678-1.693-7.67-2.581-11.672-2.644c-0.408-3.981-1.62-7.868-3.626-11.4
	c-1.996-3.521-4.765-6.687-8.265-9.216c-5.141-3.699-11.076-5.486-16.959-5.486c-2.152,0-4.295,0.24-6.384,0.711
	c-1.327-3.783-3.417-7.293-6.196-10.25c-2.769-2.957-6.207-5.381-10.209-7.022c-3.594-1.463-7.314-2.163-10.971-2.163
	c-4.493,0-8.892,1.055-12.863,3.009c-2.006-3.093-4.598-5.799-7.638-7.941c-1.849,1.505-3.5,3.229-4.921,5.141
	c-4.368-2.529-9.362-3.908-14.514-3.908c-3.051,0-6.154,0.491-9.216,1.505c-4.106,1.369-7.701,3.574-10.658,6.353
	c-2.957,2.779-5.298,6.134-6.865,9.822c-2.664-0.784-5.423-1.181-8.213-1.181c-5.266,0-10.595,1.432-15.391,4.441
	c-3.668,2.299-6.635,5.266-8.861,8.662c-2.226,3.396-3.688,7.199-4.357,11.16c-0.481-0.021-0.961-0.031-1.442-0.031
	c-7.534,0-15.047,2.905-20.731,8.704c-5.538,5.663-8.286,13.019-8.286,20.354c0,0.669,0.021,1.337,0.063,1.996
	c-3.939,0.742-7.701,2.299-11.045,4.587c-3.344,2.288-6.259,5.319-8.474,9.028c-2.8,4.681-4.127,9.822-4.127,14.9
	c0,2.988,0.46,5.945,1.358,8.777c-3.657,1.651-6.969,4.044-9.686,7.064c-2.706,3.02-4.838,6.656-6.113,10.794
	c-0.899,2.873-1.327,5.778-1.327,8.641c0,5.36,1.505,10.543,4.211,15.026c-6.311,4.921-10.585,12.424-11.139,21.055h0.01
	c-0.042,0.648-0.063,1.285-0.063,1.912c0,7.879,3.187,15.099,8.391,20.365c-4.033,5.026-6.363,11.379-6.363,18.108
	c0,1.63,0.136,3.281,0.418,4.942c0.742,4.263,2.372,8.15,4.671,11.494c2.299,3.344,5.266,6.165,8.683,8.276
	c-1.797,3.835-2.748,8.035-2.748,12.33c0,3.845,0.773,7.764,2.403,11.525c1.724,3.96,4.221,7.356,7.252,10.062
	c3.02,2.706,6.562,4.744,10.376,5.987c-0.387,1.902-0.585,3.845-0.585,5.799c0,6.081,1.912,12.204,5.851,17.439
	c2.602,3.459,5.82,6.154,9.394,8.088c3.563,1.923,7.481,3.062,11.473,3.385c0.146,4.002,1.118,7.962,2.884,11.609
	c1.766,3.657,4.326,6.98,7.659,9.728c5.402,4.462,11.943,6.635,18.442,6.635c1.515,0,3.03-0.125,4.524-0.355
	c1.076,3.866,2.957,7.492,5.527,10.627c2.57,3.145,5.841,5.789,9.728,7.68c4.086,1.985,8.422,2.936,12.685,2.936
	c3.845,0,7.638-0.773,11.149-2.226c1.954,3.5,4.629,6.593,7.868,9.038c0.731,0.554,1.484,1.066,2.267,1.536
	c2.706,1.672,5.736,2.915,9.017,3.626c7.607,1.661,15.172,0.167,21.326-3.594c0.679-0.418,1.337-0.857,1.985-1.327
	c0.063,0.073,0.136,0.146,0.199,0.209c1.452-0.815,2.821-1.766,4.096-2.811c3.145-2.581,5.684-5.778,7.492-9.362
	c3.197,1.17,6.583,1.776,10.01,1.776c4.66,0,9.394-1.128,13.782-3.49c3.803-2.058,6.959-4.838,9.394-8.087
	c2.445-3.239,4.159-6.949,5.068-10.846c1.108,0.125,2.226,0.188,3.344,0.188c6.896,0,13.824-2.445,19.362-7.419
	c6.374-5.736,9.634-13.657,9.634-21.608v-0.157c3.971-0.481,7.837-1.787,11.327-3.866c3.49-2.069,6.583-4.911,9.038-8.464
	c3.469-5.026,5.141-10.762,5.141-16.447c0-2.351-0.282-4.692-0.846-6.969c3.762-1.411,7.21-3.584,10.115-6.426
	c2.905-2.832,5.266-6.322,6.813-10.355c1.317-3.417,1.933-6.938,1.933-10.397c0-4.712-1.149-9.31-3.281-13.416
	c3.312-2.257,6.165-5.183,8.317-8.62c2.163-3.438,3.626-7.387,4.18-11.682c0.167-1.264,0.24-2.518,0.24-3.751
	c0-3.051-0.481-6.029-1.379-8.829c0.878-1.87,1.567-3.856,2.027-5.914C448.073,196.263,448.324,194.111,448.324,191.916z"/>
<path style="fill:#E8E8E8;" d="M349.958,56.344l5.521-15.692L309.941,62.77l20.818,48.142l6.809-19.35
	c61.531,30.853,100.681,93.656,100.681,163.196c0,15.098-1.844,30.101-5.482,44.593l35.966,9.027
	c4.377-17.441,6.596-35.482,6.596-53.62C475.33,169.509,426.428,92.664,349.958,56.344z"/>
<g>
</g>
<g>
</g>
<g>
</g>
<g>
</g>
<g>
</g>
<g>
</g>
<g>
</g>
<g>
</g>
<g>
</g>
<g>
</g>
<g>
</g>
<g>
</g>
<g>
</g>
<g>
</g>
<g>
</g>
</svg>
