<?xml version="1.0" encoding="iso-8859-1"?>
<!-- Generator: Adobe Illustrator 19.0.0, SVG Export Plug-In . SVG Version: 6.00 Build 0)  -->
<svg version="1.1" id="Capa_1" xmlns="http://www.w3.org/2000/svg" xmlns:xlink="http://www.w3.org/1999/xlink" x="0px" y="0px"
	 viewBox="0 0 512 512" style="enable-background:new 0 0 512 512;" xml:space="preserve">
<path style="fill:#41B787;" d="M512,256c0,141.385-114.615,256-256,256c-63.77,0-122.096-23.312-166.912-61.9
	c-1.703-1.463-3.385-2.957-5.047-4.463c-0.282-0.261-0.575-0.522-0.857-0.784c-6.071-5.548-11.87-11.389-17.377-17.502
	C24.9,381.983,0,321.891,0,256C0,114.615,114.615,0,256,0S512,114.615,512,256z"/>
<circle style="fill:#4BC999;" cx="256" cy="213.295" r="213.295"/>
<g>
	<path style="fill:#EDBB4C;" d="M428.677,302.657C398.294,248.402,270.2,210.109,270.2,210.109l-138.893-49.915l-84.638,84.638
		c0,0,78.127,6.511,108.511,60.766L428.677,302.657z"/>
	<path style="fill:#EDBB4C;" d="M211.602,407.594L176.88,492.23c-29.268-29.268-66.048-38.943-87.792-42.13
		c-1.703-1.463-3.385-2.957-5.047-4.463c-0.282-0.261-0.575-0.522-0.857-0.784L211.602,407.594z"/>
	<path style="fill:#EDBB4C;" d="M491.593,79.633c0,0-58.628-69.183-147.606-69.183l26.043,65.107"/>
</g>
<g>
	<path style="fill:#FFD15C;" d="M454.667,244.832c-134.341-30.029-273.657-30.029-407.998,0
		C34.36,189.765,22.053,134.699,9.743,79.633c158.659-35.464,323.191-35.464,481.85,0
		C479.284,134.699,466.976,189.766,454.667,244.832z"/>
	<path style="fill:#FFD15C;" d="M428.68,302.655c-10.867,48.619-21.744,97.249-32.611,145.868
		c-102.693-22.956-209.032-23.918-312.027-2.884c-6.384-5.778-12.466-11.88-18.233-18.286
		c-9.289-41.566-18.578-83.122-27.867-124.698C166.599,273.899,300.022,273.899,428.68,302.655z"/>
</g>
<g>
	<path style="fill:#279FC9;" d="M46.475,130.92c-0.44-1.979,0.91-4.173,3.499-4.731c6.826-1.492,13.663-2.906,20.511-4.242
		c13.624-2.658,25.496,0.292,27.977,15.452c1.811,10.966-2.807,17.797-9.865,21.346c5.754,6.904,11.398,13.864,16.932,20.872
		c0.462,0.415,0.68,1.065,0.74,1.444c0.517,3.149-3.067,7.17-6.709,7.817c-1.731,0.305-3.552-0.451-4.859-2.173
		c-6.15-7.918-12.434-15.774-18.855-23.565c-2.775,0.548-5.549,1.112-8.322,1.691c1.713,8.231,3.426,16.462,5.139,24.691
		c0.532,2.556-2.262,4.514-5.414,5.195c-3.061,0.661-6.506,0.038-7.075-2.501C55.609,171.784,51.043,151.351,46.475,130.92z
		 M61.326,135.03c1.397,6.718,2.796,13.433,4.193,20.151c3.669-0.765,7.341-1.505,11.018-2.222
		c6.511-1.262,10.264-4.587,8.899-12.103c-1.365-7.507-6.169-9.403-12.841-8.097C68.836,133.493,65.079,134.25,61.326,135.03z"/>
	<path style="fill:#279FC9;" d="M125.669,143.506c5.123-0.706,10.249-1.37,15.381-1.989c2.636-0.312,4.436,1.904,4.731,4.5
		c0.252,2.206-0.747,4.947-3.551,5.285c-5.076,0.611-10.146,1.269-15.213,1.968c0.886,6.414,1.772,12.826,2.657,19.24
		c9.229-1.274,18.471-2.399,27.726-3.378c2.553-0.264,4.285,2.184,4.586,5.161c0.259,2.592-0.724,5.513-3.428,5.793
		c-11.497,1.214-22.975,2.662-34.427,4.341c-2.794,0.408-5.699-0.516-6.097-3.094c-3.164-20.664-6.328-41.325-9.492-61.988
		c-0.397-2.581,2.315-4.359,5.348-4.808c12.39-1.816,24.809-3.38,37.246-4.695c2.938-0.308,4.58,2.345,4.841,4.938
		c0.3,2.984-0.995,5.738-3.683,6.015c-9.77,1.032-19.529,2.221-29.27,3.567C123.905,130.743,124.787,137.126,125.669,143.506z"/>
	<path style="fill:#279FC9;" d="M191.181,117.518c-6.968,0.446-10.642,4.323-10.07,11.835c0.671,8.961,1.344,17.921,2.015,26.883
		c0.571,7.526,4.571,10.786,11.346,10.358c8.936-0.54,9.406-6.818,9.502-10.897c0.041-3.006,2.795-4.113,6.196-4.262
		c4.493-0.196,6.649,0.991,6.826,5.914c0.385,11.697-8.968,19.424-22.514,20.281c-12.192,0.771-22.79-4.258-24.289-20.328
		c-0.802-8.951-1.606-17.901-2.408-26.852c-1.499-16.067,9.006-23.056,22.283-23.897c14.651-0.923,25.333,5.906,25.696,17.096
		c0.181,5.023-1.928,6.247-6.432,6.449c-3.788,0.16-6.603-0.739-6.858-3.641C202.116,123.493,201.059,116.913,191.181,117.518z"/>
	<path style="fill:#279FC9;" d="M244.758,147.011c-0.002-0.483-0.106-0.969-0.308-1.255c-7.003-11.493-14.276-22.904-21.816-34.226
		c-0.216-0.476-0.347-0.962-0.351-1.247c-0.098-3.096,5.212-5.373,8.898-5.433c2.206-0.044,3.278,0.711,4.248,2.441
		c5.456,9.229,10.751,18.505,15.888,27.826c5.215-9.295,10.59-18.546,16.126-27.747c0.979-1.622,1.94-2.48,4.154-2.423
		c3.688,0.084,8.984,2.383,8.873,5.475c-0.008,0.293-0.027,0.782-0.354,1.248c-7.559,11.283-14.853,22.661-21.88,34.121
		c-0.205,0.286-0.408,0.775-0.414,1.252c-0.08,8.115-0.158,16.235-0.236,24.349c-0.03,2.607-3.151,3.931-6.362,3.924
		c-3.108-0.007-6.323-1.347-6.343-3.955C244.838,163.245,244.798,155.126,244.758,147.011z"/>
	<path style="fill:#279FC9;" d="M314.236,117.99c-6.97-0.485-11.125,2.871-11.556,10.388c-0.528,8.971-1.055,17.942-1.583,26.912
		c-0.434,7.526,3.095,11.302,9.865,11.776c8.928,0.649,10.241-5.499,10.872-9.536c0.44-2.969,3.322-3.701,6.712-3.397
		c4.491,0.41,6.463,1.868,5.984,6.77c-1.178,11.643-11.49,18.053-25.027,17.102c-12.188-0.867-22.015-7.253-21.358-23.382
		c0.396-8.979,0.793-17.957,1.188-26.933c0.653-16.12,11.988-21.658,25.259-20.717c14.645,1.033,24.335,9.233,23.204,20.367
		c-0.494,5.008-2.749,5.934-7.24,5.534c-3.778-0.331-6.45-1.629-6.315-4.521C324.283,125.358,324.113,118.713,314.236,117.99z"/>
	<path style="fill:#279FC9;" d="M349.673,181.187c-2.803-0.333-5.367-1.98-5.08-4.568c2.306-20.81,4.612-41.615,6.917-62.425
		c0.297-2.693,3.773-3.478,7.232-3.063c3.353,0.387,6.663,1.982,6.322,4.664c-2.318,18.439-4.635,36.88-6.954,55.319
		c7.967,1,15.923,2.111,23.865,3.334c2.543,0.397,3.392,3.26,2.947,6.035c-0.427,2.672-2.114,5.236-4.622,4.853
		C370.111,183.771,359.899,182.385,349.673,181.187z"/>
	<path style="fill:#279FC9;" d="M413.619,150.123c5.095,0.945,10.183,1.932,15.264,2.964c2.609,0.53,3.618,3.209,3.087,5.764
		c-0.456,2.178-2.274,4.458-5.048,3.895c-5.026-1.022-10.058-1.999-15.097-2.931c-1.179,6.367-2.357,12.731-3.538,19.098
		c9.177,1.699,18.335,3.546,27.465,5.544c2.523,0.555,3.399,3.421,2.745,6.347c-0.564,2.538-2.431,4.999-5.097,4.416
		c-11.343-2.48-22.724-4.728-34.136-6.747c-2.786-0.49-5.251-2.28-4.817-4.856c3.506-20.609,7.009-41.217,10.515-61.825
		c0.438-2.566,3.574-3.405,6.595-2.877c12.345,2.18,24.66,4.615,36.932,7.297c2.901,0.638,3.621,3.669,3.057,6.218
		c-0.656,2.924-2.755,5.125-5.41,4.543c-9.641-2.108-19.308-4.057-28.994-5.852C415.967,137.453,414.792,143.787,413.619,150.123z"
		/>
	<path style="fill:#279FC9;" d="M175.388,324.528c3.162-0.364,4.935,2.369,5.216,5.059c0.311,2.976-1.056,5.849-3.915,6.17
		c-5.365,0.621-10.719,1.331-16.062,2.128c2.724,18.252,5.448,36.507,8.173,54.761c0.379,2.582-2.607,4.393-5.691,4.903
		c-3.173,0.517-6.495-0.258-6.961-2.824c-3.258-18.167-6.516-36.332-9.774-54.499c-5.361,0.961-10.712,2.012-16.05,3.155
		c-2.826,0.607-5.024-1.569-5.704-4.588c-0.597-2.638,0.223-5.796,3.341-6.467C143.667,328.967,159.496,326.371,175.388,324.528z"/>
	<path style="fill:#279FC9;" d="M231.72,360.124c-7.84,0.027-15.679,0.254-23.509,0.679c0.501,9.231,1,18.462,1.502,27.692
		c0.137,2.605-3.001,4.124-6.11,4.345c-3.202,0.215-6.429-0.868-6.647-3.466c-1.743-20.865-3.488-41.726-5.231-62.59
		c-0.233-2.698,3.289-4.151,7.025-4.412c3.623-0.255,7.422,0.704,7.563,3.405c0.456,8.394,0.91,16.788,1.365,25.183
		c7.997-0.435,16.002-0.666,24.007-0.692c-0.03-8.406-0.061-16.813-0.091-25.22c-0.014-2.709,3.608-3.882,7.351-3.838
		c3.631,0.042,7.339,1.294,7.264,3.999c-0.536,20.929-1.072,41.858-1.608,62.788c-0.077,2.605-3.32,3.875-6.433,3.844
		c-3.21-0.037-6.335-1.38-6.348-3.985C231.787,378.614,231.753,369.369,231.72,360.124z"/>
	<path style="fill:#279FC9;" d="M263.05,325.926c0.152-2.696,3.84-3.648,7.578-3.368c3.623,0.268,7.252,1.75,7.004,4.447
		c-1.851,20.854-3.702,41.708-5.554,62.563c-0.238,2.6-3.557,3.655-6.667,3.431c-3.199-0.237-6.232-1.772-6.084-4.376
		C260.567,367.724,261.809,346.825,263.05,325.926z"/>
	<path style="fill:#279FC9;" d="M319.084,381.163c2.85-14.569-30.937-15.352-28.445-37.751c1.581-14.327,16.658-17.497,29.61-15.186
		c6.647,1.079,20.998,5.454,19.581,11.733c-0.481,2.165-3.164,6.122-7.061,5.312c-3.353-0.676-5.13-4.83-14.366-6.478
		c-7.916-1.375-12.846,0.775-13.513,5.352c-1.676,11.489,33.187,13.752,27.471,38.499c-3.118,13.484-14.202,18.219-27.387,16.004
		c-12.533-2.11-21.5-9.464-20.925-15.05c0.298-2.684,3.388-6.427,6.521-6.024c4.157,0.556,5.842,8.226,15.879,9.858
		C312.355,388.421,317.966,386.848,319.084,381.163z"/>
</g>
<g>
</g>
<g>
</g>
<g>
</g>
<g>
</g>
<g>
</g>
<g>
</g>
<g>
</g>
<g>
</g>
<g>
</g>
<g>
</g>
<g>
</g>
<g>
</g>
<g>
</g>
<g>
</g>
<g>
</g>
</svg>
