<?xml version="1.0" encoding="iso-8859-1"?>
<!-- Generator: Adobe Illustrator 19.0.0, SVG Export Plug-In . SVG Version: 6.00 Build 0)  -->
<svg version="1.1" id="Capa_1" xmlns="http://www.w3.org/2000/svg" xmlns:xlink="http://www.w3.org/1999/xlink" x="0px" y="0px"
	 viewBox="0 0 512 512" style="enable-background:new 0 0 512 512;" xml:space="preserve">
<path style="fill:#34ABE0;" d="M512,256c0,141.385-114.615,256-256,256c-80.729,0-152.722-37.366-199.649-95.754
	c-12.434-15.464-23.103-32.413-31.713-50.521c-1.829-3.856-3.563-7.774-5.204-11.734c-0.136-0.313-0.272-0.637-0.397-0.951
	c-3.417-8.317-6.405-16.854-8.934-25.59C3.521,304.776,0,280.795,0,256c0-18.265,1.912-36.08,5.559-53.258
	c3.532-16.75,8.714-32.904,15.36-48.264c13.04-30.166,31.723-57.313,54.711-80.133C121.908,28.39,185.626,0,256,0
	C397.385,0,512,114.615,512,256z"/>
<circle style="fill:#72BBE8;" cx="256" cy="213.295" r="213.295"/>
<g>
	<path style="fill:#5C5E70;" d="M60.719,353.991v52.715c0,3.814-1.693,7.231-4.368,9.54c-12.434-15.464-23.103-32.413-31.713-50.521
		c-1.829-3.856-3.563-7.774-5.204-11.734H60.719z"/>
	<path style="fill:#5C5E70;" d="M397.745,353.989v28.281c-12.075,13.61,14.513,26.024,0,37.038h-64.337
		c-6.963,0-12.606-5.642-12.606-12.606v-52.714H397.745z"/>
</g>
<path style="fill:#FFD15C;" d="M416.413,259.208v68.504c-0.042-0.021-0.073-0.021-0.115-0.031
	c-4.305,13.239-9.759,25.955-16.227,38.045H24.639c-7.816-16.468-13.939-33.876-18.108-52.046
	c-0.784-3.396-1.505-6.823-2.152-10.271c-0.46-2.456-0.888-4.921-1.275-7.408c-1.776-11.368-2.821-22.988-3.041-34.806
	C0.021,259.469,0,257.735,0,256c0-1.703,0.021-3.396,0.052-5.078c0.313-16.499,2.194-32.601,5.507-48.18l5.099-3.532l10.261-44.732
	l10.062-43.833c4.796-20.95,23.249-35.882,44.648-36.3c0.313-0.01,0.616-0.01,0.93-0.01h228.383c21.807,0,40.72,15.057,45.599,36.31
	l20.313,88.566l22.162,15.329C407.667,224.684,416.413,241.382,416.413,259.208z"/>
<path style="fill:#5C5E70;" d="M332.201,199.215H49.328c-6.535,0-11.376-6.071-9.914-12.442l16.169-70.474
	c2.256-9.846,10.883-16.73,20.99-16.73h228.375c10.107,0,18.734,6.884,21,16.73l16.159,70.474
	C343.568,193.144,338.736,199.215,332.201,199.215z"/>
<path style="fill:#D6D6D6;" d="M302.692,365.72v5.661c0,13.75-19.082,24.896-42.619,24.896h-138.63
	c-23.538,0-42.619-11.146-42.619-24.896v-5.661H302.692z"/>
<g>
	<path style="fill:#EDBB4C;" d="M295.875,313.017H85.643c-3.438,0-6.224-2.787-6.224-6.224v-6.43c0-3.438,2.787-6.224,6.224-6.224
		h210.232c3.438,0,6.224,2.787,6.224,6.224v6.43C302.101,310.23,299.314,313.017,295.875,313.017z"/>
	<path style="fill:#EDBB4C;" d="M295.875,282.21H85.643c-3.438,0-6.224-2.787-6.224-6.224v-6.43c0-3.438,2.787-6.224,6.224-6.224
		h210.232c3.438,0,6.224,2.787,6.224,6.224v6.43C302.101,279.423,299.314,282.21,295.875,282.21z"/>
</g>
<path style="fill:#E8E8E8;" d="M410.779,327.452c11.299,0.144,17.914,12.88,11.737,22.344c-3.548,5.438-7.284,10.744-11.202,15.909
	c-0.261,0.021-0.522,0.021-0.784,0.021H24.639c-5.82-12.257-10.7-25.046-14.535-38.275H410.53
	C410.612,327.45,410.696,327.451,410.779,327.452z"/>
<path style="fill:#5C5560;" d="M319.75,152.381c2.218,7.084-5.976,12.833-11.883,8.335l-21.859-16.646l-22.932-17.463
	c-5.8-4.417-2.677-13.676,4.614-13.676h34.11c3.329,0,6.274,2.163,7.268,5.34L319.75,152.381z"/>
<path style="fill:#D6D6D6;" d="M420.373,353.04c-2.905,4.305-5.925,8.537-9.059,12.664c-0.261,0.021-0.522,0.021-0.784,0.021H24.639
	c-1.975-4.169-3.845-8.401-5.601-12.685L420.373,353.04L420.373,353.04z"/>
<path style="fill:#494B5B;" d="M153,199.215H49.328c-6.535,0-11.376-6.071-9.914-12.442l16.169-70.474
	c2.256-9.846,10.883-16.73,20.99-16.73C76.572,99.569,59.087,186.735,153,199.215z"/>
<path style="fill:#EDBB4C;" d="M337.202,313.679c-11.23,0-20.366-9.137-20.366-20.366v-22.026c0-10.656,8.208-19.483,18.767-20.288
	c0.713-0.078,1.281-0.078,1.599-0.078h51.685c11.23,0,20.367,9.137,20.367,20.366v22.026c0,1.892-0.259,3.731-0.769,5.469
	c-2.425,8.78-10.457,14.897-19.598,14.897H337.202z"/>
<path style="fill:#D6D6D6;" d="M398.986,271.287v22.026c0,0.925-0.12,1.814-0.376,2.653c-1.146,4.296-5.066,7.445-9.721,7.445
	h-51.686c-5.58,0-10.098-4.518-10.098-10.098v-22.026c0-5.374,4.193-9.772,9.498-10.063c0.188-0.034,0.394-0.034,0.599-0.034h51.686
	C394.468,261.189,398.986,265.707,398.986,271.287z"/>
<path style="fill:#E8E8E8;" d="M398.986,271.287v22.026c0,0.925-0.12,1.814-0.376,2.653c-0.188,0.034-0.394,0.034-0.582,0.034
	h-51.703c-5.58,0-10.098-4.518-10.098-10.098v-22.026c0-0.924,0.12-1.814,0.376-2.653c0.188-0.034,0.394-0.034,0.599-0.034h51.686
	C394.468,261.189,398.986,265.707,398.986,271.287z"/>
<path style="fill:#EDBB4C;" d="M64.679,271.287v22.026c0,1.891-0.251,3.73-0.763,5.465c-2.424,8.788-10.459,14.9-19.602,14.9H6.531
	C2.257,295.142,0,275.832,0,256c0-1.703,0.021-3.396,0.052-5.078h44.262C55.547,250.922,64.679,260.054,64.679,271.287z"/>
<path style="fill:#D6D6D6;" d="M54.418,271.287v22.026c0,0.919-0.125,1.818-0.376,2.654c-1.149,4.294-5.068,7.44-9.728,7.44H4.378
	c-2.56-13.709-4.044-27.815-4.315-42.214h44.251C49.894,261.193,54.418,265.707,54.418,271.287z"/>
<path style="fill:#E8E8E8;" d="M54.418,271.287v22.026c0,0.919-0.125,1.818-0.376,2.654c-0.188,0.031-0.397,0.031-0.585,0.031H3.103
	c-1.776-11.368-2.821-22.988-3.041-34.806h44.251C49.894,261.193,54.418,265.707,54.418,271.287z"/>
<path style="fill:#4BC999;" d="M336.941,353.283v81.416c-38.153,0-62.9-0.207-78.853-4.795c-9.197-2.646-16.986-8.804-21.848-17.048
	l0,0c0-0.003,0-0.007-0.003-0.01c-3.045-8.424-7.864-27.793-0.494-42.342c4.882-9.642,17.375-9.923,21.144-17.22h80.055V353.283z"/>
<path style="fill:#1E9E67;" d="M269.975,254.485l40.618,81.233l-34.581-18.659c0,0-6.375,11.527-19.127,36.223
	c-3.769,7.297-8.095,15.747-12.976,25.389c-7.37,14.549-10.719,25.75-7.674,34.174l-42.862-72.682
	c-4.252-7.216-4.548-16.105-0.775-23.584l17.733-35.199l-32.016-18.663L269.975,254.485z"/>
<path style="fill:#4BC999;" d="M509.064,294.839c-3.135,20.647-8.746,40.469-16.509,59.183c-1.39,3.354-2.853,6.666-4.389,9.947
	c-3.406,1.306-6.98,2.163-10.658,2.361c-10.794,0.596-17.283-10.083-25.485-9.697l-40.03-69.329l70.51-40.709
	C493.913,266.355,502.868,282.008,509.064,294.839z"/>
<path style="fill:#1E9E67;" d="M492.554,354.022c-11.922,28.745-28.933,54.857-49.915,77.187l-29.602,1.693l-0.105,25.36
	c-1.776,1.39-3.584,2.748-5.402,4.086L359.915,394.7l50.04-75.797l1.139,39.278c0,0,13.166-0.24,40.929-1.546
	c8.202-0.387,17.69-0.867,28.473-1.463C484.874,354.931,488.897,354.565,492.554,354.022z"/>
<path style="fill:#4BC999;" d="M315.453,256.818l-70.509-40.708c19.077-33.042,31.629-54.369,43.58-65.891
	c6.89-6.642,16.118-10.308,25.687-10.397l0,0c0.003,0.002,0.006,0.004,0.011,0.002c8.818,1.576,28.001,7.085,36.917,20.743
	c5.91,9.049-0.093,20.009,4.342,26.922L315.453,256.818z"/>
<path style="fill:#1E9E67;" d="M434.498,248.223l-90.66-5.44l33.449-20.618c0,0-6.795-11.284-21.807-34.677
	c-4.435-6.912-9.589-14.884-15.499-23.931c-8.915-13.657-16.942-22.157-25.759-23.733l84.376-0.778
	c8.376-0.074,16.221,4.113,20.812,11.121l21.617,32.957l32.17-18.395L434.498,248.223z"/>
<g>
</g>
<g>
</g>
<g>
</g>
<g>
</g>
<g>
</g>
<g>
</g>
<g>
</g>
<g>
</g>
<g>
</g>
<g>
</g>
<g>
</g>
<g>
</g>
<g>
</g>
<g>
</g>
<g>
</g>
</svg>
