<?xml version="1.0" encoding="iso-8859-1"?>
<!-- Generator: Adobe Illustrator 19.0.0, SVG Export Plug-In . SVG Version: 6.00 Build 0)  -->
<svg version="1.1" id="Capa_1" xmlns="http://www.w3.org/2000/svg" xmlns:xlink="http://www.w3.org/1999/xlink" x="0px" y="0px"
	 viewBox="0 0 512 512" style="enable-background:new 0 0 512 512;" xml:space="preserve">
<path style="fill:#E8E8E8;" d="M512,256c0,107.874-67.045,200.096-161.732,237.264c-28.827,11.315-60.213,17.523-93.054,17.523
	c-53.838,0-103.776-16.702-144.906-45.196c-15.62-10.826-29.971-23.347-42.794-37.313c-9.952-10.836-18.979-22.536-26.966-34.973
	c-6.375-9.942-12.074-20.373-17.045-31.198c-2.111-4.586-4.087-9.256-5.917-13.998C8.499,319.541,2.426,288.478,2.426,256
	s6.073-63.541,17.159-92.108c18.646-48.087,51.477-89.103,93.356-117.92c41.015-28.235,90.704-44.759,144.272-44.759
	C397.928,1.213,512,115.285,512,256z"/>
<path style="fill:#EDBB4C;" d="M350.268,45.972v447.291c-28.827,11.315-60.213,17.523-93.054,17.523
	c-74.283,0-141.142-31.791-187.7-82.509c-21.298-23.18-38.353-50.313-49.928-80.169V45.972H350.268z"/>
<g>
	<path style="fill:#FFD15C;" d="M350.268,91.212H138.713c-14.586,0-26.41,11.824-26.41,26.41v95.257h237.965V91.212z"/>
	<path style="fill:#FFD15C;" d="M350.268,259.675H138.713c-14.586,0-26.41,11.824-26.41,26.41v95.257h237.965V259.675z"/>
	<path style="fill:#FFD15C;" d="M350.268,420.863v72.401c-28.827,11.315-60.213,17.523-93.054,17.523
		c-53.838,0-103.776-16.702-144.906-45.196v-18.324c0-14.58,11.824-26.404,26.404-26.404L350.268,420.863L350.268,420.863z"/>
</g>
<g>
	<path style="fill:#EDBB4C;" d="M354.249,71.973H15.598C6.983,71.973,0,64.99,0,56.375l0,0c0-8.615,6.983-15.598,15.598-15.598
		h338.651c8.615,0,15.598,6.983,15.598,15.598l0,0C369.848,64.99,362.864,71.973,354.249,71.973z"/>
	<path style="fill:#EDBB4C;" d="M369.85,377.705c0,4.305-1.747,8.205-4.565,11.023c-2.829,2.829-6.728,4.576-11.034,4.576H42.547
		c-6.375-9.942-12.074-20.373-17.045-31.198h328.748C362.861,362.106,369.85,369.084,369.85,377.705z"/>
	<path style="fill:#EDBB4C;" d="M369.85,217.033c0,4.305-1.747,8.216-4.565,11.034c-2.829,2.818-6.728,4.565-11.034,4.565H15.602
		c-8.621,0-15.599-6.978-15.599-15.599c0-4.305,1.747-8.205,4.565-11.023c2.829-2.818,6.718-4.565,11.034-4.565h338.648
		C362.861,201.444,369.85,208.422,369.85,217.033z"/>
</g>
<g>
	<path style="fill:#FFD15C;" d="M369.85,217.033c0,4.305-1.747,8.216-4.565,11.034c-2.829,2.818-6.728,4.565-11.034,4.565H101.554
		c-8.611,0-15.599-6.978-15.599-15.599c0-4.305,1.747-8.205,4.576-11.023c2.818-2.818,6.718-4.565,11.023-4.565h252.697
		C362.861,201.444,369.85,208.422,369.85,217.033z"/>
	<path style="fill:#FFD15C;" d="M369.85,56.365c0,4.305-1.747,8.216-4.565,11.034c-2.829,2.818-6.728,4.565-11.034,4.565H101.554
		c-8.611,0-15.599-6.978-15.599-15.599c0-4.305,1.747-8.205,4.576-11.023c2.818-2.818,6.718-4.565,11.023-4.565h252.697
		C362.861,40.776,369.85,47.754,369.85,56.365z"/>
	<path style="fill:#FFD15C;" d="M369.85,377.702c0,4.305-1.747,8.216-4.565,11.034c-2.829,2.818-6.728,4.565-11.034,4.565H101.554
		c-8.611,0-15.599-6.978-15.599-15.599c0-4.305,1.747-8.205,4.576-11.023c2.818-2.818,6.718-4.565,11.023-4.565h252.697
		C362.861,362.113,369.85,369.091,369.85,377.702z"/>
</g>
<path style="fill:#4BC999;" d="M337.77,352.822v81.031c-37.973,0-62.602-0.206-78.48-4.772c-9.154-2.633-16.905-8.763-21.744-16.967
	l0,0c0-0.004,0-0.007-0.003-0.01c-3.03-8.384-7.827-27.662-0.492-42.142c4.859-9.597,17.292-9.876,21.043-17.138h79.676V352.822z"/>
<path style="fill:#1E9E67;" d="M271.122,254.492l40.426,80.849l-34.417-18.57c0,0-6.345,11.473-19.036,36.052
	c-3.751,7.262-8.056,15.671-12.914,25.269c-7.335,14.48-10.668,25.628-7.637,34.012l-42.659-72.338
	c-4.232-7.182-4.527-16.029-0.772-23.473l17.649-35.033l-31.864-18.574L271.122,254.492z"/>
<path style="fill:#4BC999;" d="M509.078,294.655c-3.12,20.549-8.704,40.277-16.431,58.903c-1.383,3.338-2.839,6.635-4.368,9.9
	c-3.39,1.3-6.947,2.153-10.607,2.35c-10.743,0.593-17.201-10.035-25.364-9.651l-39.84-69l70.176-40.516
	C493.999,266.306,502.911,281.884,509.078,294.655z"/>
<path style="fill:#1E9E67;" d="M492.647,353.557c-11.866,28.609-28.796,54.597-49.678,76.821l-29.462,1.685l-0.104,25.24
	c-1.768,1.383-3.567,2.735-5.377,4.066l-47.39-67.326l49.803-75.438l1.134,39.092c0,0,13.103-0.239,40.735-1.539
	c8.164-0.385,17.606-0.863,28.339-1.456C485.003,354.462,489.007,354.098,492.647,353.557z"/>
<path style="fill:#4BC999;" d="M316.384,256.814l-70.175-40.515c18.986-32.885,31.479-54.112,43.373-65.579
	c6.857-6.611,16.041-10.259,25.566-10.347l0,0c0.003,0.002,0.006,0.003,0.011,0.002c8.776,1.568,27.868,7.052,36.742,20.645
	c5.882,9.006-0.093,19.914,4.321,26.794L316.384,256.814z"/>
<path style="fill:#1E9E67;" d="M434.864,248.26l-90.23-5.414l33.291-20.52c0,0-6.763-11.23-21.704-34.513
	c-4.414-6.879-9.544-14.813-15.426-23.818c-8.873-13.592-16.862-22.052-25.637-23.62l83.975-0.775
	c8.336-0.074,16.144,4.093,20.714,11.068l21.514,32.801l32.018-18.308L434.864,248.26z"/>
<g>
</g>
<g>
</g>
<g>
</g>
<g>
</g>
<g>
</g>
<g>
</g>
<g>
</g>
<g>
</g>
<g>
</g>
<g>
</g>
<g>
</g>
<g>
</g>
<g>
</g>
<g>
</g>
<g>
</g>
</svg>
