<?xml version="1.0" encoding="iso-8859-1"?>
<!-- Generator: Adobe Illustrator 19.0.0, SVG Export Plug-In . SVG Version: 6.00 Build 0)  -->
<svg version="1.1" id="Capa_1" xmlns="http://www.w3.org/2000/svg" xmlns:xlink="http://www.w3.org/1999/xlink" x="0px" y="0px"
	 viewBox="0 0 512 512" style="enable-background:new 0 0 512 512;" xml:space="preserve">
<path style="fill:#E8E8E8;" d="M512,256c0,116.945-78.42,215.583-185.543,246.178c-12.372,3.542-25.119,6.165-38.181,7.805
	C277.703,511.31,266.93,512,256,512s-21.703-0.69-32.277-2.017c-13.061-1.641-25.809-4.263-38.181-7.805
	C78.42,471.583,0,372.945,0,256C0,114.615,114.615,0,256,0S512,114.615,512,256z"/>
<path style="fill:#FF525D;" d="M326.457,362.705v139.473c-12.372,3.542-25.119,6.165-38.181,7.805L256,480.674l-32.277,29.309
	c-13.061-1.641-25.809-4.263-38.181-7.805V362.705H326.457z"/>
<path style="fill:#4BC999;" d="M451.975,213.301c0-18.482,18.114-39.095,13.559-56.14c-4.714-17.637-30.844-26.413-39.778-41.854
	c-9.062-15.664-3.692-42.648-16.404-55.36c-12.712-12.712-39.696-7.341-55.36-16.404c-15.442-8.934-24.217-35.064-41.853-39.778
	c-17.045-4.556-37.658,13.559-56.14,13.559s-39.095-18.114-56.14-13.559c-17.637,4.714-26.413,30.844-41.854,39.778
	c-15.664,9.062-42.648,3.692-55.36,16.404s-7.341,39.696-16.404,55.36c-8.934,15.441-35.064,24.217-39.778,41.853
	c-4.556,17.045,13.559,37.658,13.559,56.14s-18.114,39.095-13.559,56.14c4.714,17.637,30.844,26.413,39.778,41.854
	c9.062,15.664,3.692,42.648,16.404,55.36c12.712,12.712,39.696,7.341,55.36,16.404c15.441,8.934,24.217,35.064,41.853,39.778
	c17.045,4.556,37.658-13.559,56.14-13.559s39.095,18.114,56.14,13.559c17.637-4.714,26.413-30.844,41.854-39.778
	c15.664-9.062,42.647-3.692,55.36-16.404c12.712-12.712,7.341-39.696,16.404-55.36c8.934-15.442,35.064-24.217,39.778-41.853
	C470.089,252.396,451.975,231.782,451.975,213.301z"/>
<circle style="fill:#FFD15C;" cx="256" cy="213.305" r="153.349"/>
<path style="fill:#EDBB4C;" d="M282.642,340.011c-84.695,0-153.354-68.659-153.354-153.354c0-35.557,12.105-68.285,32.414-94.296
	c-35.946,28.066-59.059,71.802-59.059,120.941c0,84.695,68.659,153.354,153.354,153.354c49.138,0,92.875-23.114,120.941-59.059
	C350.927,327.906,318.199,340.011,282.642,340.011z"/>
<path style="fill:#41B787;" d="M255.997,377.105c-90.321,0-163.804-73.481-163.804-163.803S165.676,49.497,255.997,49.497
	S419.8,122.979,419.8,213.3S346.319,377.105,255.997,377.105z M255.997,70.395c-78.799,0-142.907,64.108-142.907,142.905
	s64.108,142.905,142.907,142.905c78.798,0,142.905-64.108,142.905-142.905S334.795,70.395,255.997,70.395z"/>
<g>
	<path style="fill:#FFFFFF;" d="M155.063,166.793c0-4.897,5.204-7.346,10.407-7.346h31.374c15.305,0,30.609,5.51,30.609,27.242
		c0,12.397-4.897,20.508-13.009,24.028c9.336,3.52,15.763,9.184,15.763,24.487v3.214c0,24.181-13.468,32.905-30.762,32.905H165.47
		c-6.427,0-10.407-3.367-10.407-7.193V166.793z M178.785,201.535h16.069c5.816,0,8.724-5.356,8.724-10.56
		c0-5.356-2.908-10.712-8.724-10.712h-16.069V201.535z M194.09,250.509c7.653,0,12.244-4.285,12.244-14.08v-2.448
		c0-10.407-4.591-14.08-12.244-14.08h-15.305v30.608L194.09,250.509L194.09,250.509z"/>
	<path style="fill:#FFFFFF;" d="M242.605,166.64c0-5.05,5.968-7.193,11.937-7.193c5.969,0,11.938,2.142,11.938,7.193v97.336
		c0,4.898-5.968,7.347-11.938,7.347c-5.968,0-11.937-2.448-11.937-7.347V166.64z"/>
	<path style="fill:#FFFFFF;" d="M281.785,236.123v-40.557c0-26.323,16.377-36.118,37.496-36.118c21.121,0,37.65,9.795,37.65,36.118
		v40.557c0,26.324-16.529,36.119-37.65,36.119C298.161,272.242,281.785,262.447,281.785,236.123z M333.055,195.566
		c0-10.56-5.203-15.304-13.775-15.304c-8.57,0-13.62,4.745-13.62,15.304v40.557c0,10.56,5.05,15.305,13.62,15.305
		c8.571,0,13.775-4.745,13.775-15.305V195.566z"/>
</g>
<g>
</g>
<g>
</g>
<g>
</g>
<g>
</g>
<g>
</g>
<g>
</g>
<g>
</g>
<g>
</g>
<g>
</g>
<g>
</g>
<g>
</g>
<g>
</g>
<g>
</g>
<g>
</g>
<g>
</g>
</svg>
