<?xml version="1.0" encoding="iso-8859-1"?>
<!-- Generator: Adobe Illustrator 19.0.0, SVG Export Plug-In . SVG Version: 6.00 Build 0)  -->
<svg version="1.1" id="Capa_1" xmlns="http://www.w3.org/2000/svg" xmlns:xlink="http://www.w3.org/1999/xlink" x="0px" y="0px"
	 viewBox="0 0 512 512" style="enable-background:new 0 0 512 512;" xml:space="preserve">
<path style="fill:#34ABE0;" d="M512,256c0,21.912-2.759,43.186-7.931,63.488c-4.869,19.069-11.87,37.282-20.752,54.366
	C440.675,455.931,354.889,512,256,512c-98.879,0-184.665-56.048-227.297-138.125c-8.882-17.084-15.893-35.297-20.762-54.366
	C2.759,299.196,0,277.922,0,256c0-1.912,0.021-3.814,0.063-5.716v-0.01C3.114,111.532,116.527,0,256,0
	s252.897,111.532,255.937,250.284v0.01C511.979,252.197,512,254.088,512,256z"/>
<circle style="fill:#72BBE8;" cx="256" cy="213.295" r="213.295"/>
<path style="fill:#D6D6D6;" d="M512,256c0,21.912-2.759,43.186-7.931,63.488c-4.869,19.069-11.87,37.282-20.752,54.366
	c-9.028,3.699-18.913,5.726-29.278,5.726H57.96c-10.344,0-20.229-2.027-29.257-5.705c-8.882-17.084-15.893-35.297-20.762-54.366
	C2.759,299.196,0,277.922,0,256c0-1.912,0.021-3.814,0.063-5.716v-0.01c10.94-12.236,25.694-20.982,42.381-24.377
	c0.69-79.161,65.066-143.13,144.394-143.13c42.621,0,80.917,18.453,107.342,47.804c16.478-12.006,36.77-19.111,58.713-19.111
	c55.077,0,99.736,44.648,99.736,99.715c0,4.483-0.313,8.903-0.878,13.228c0.763-0.01,1.515-0.052,2.288-0.052
	c23.019,0,43.687,10.021,57.898,25.934v0.01C511.979,252.197,512,254.088,512,256z"/>
<path style="fill:#E8E8E8;" d="M512,256c0,21.912-2.759,43.186-7.931,63.488c-13.5,11.4-30.96,18.275-50.03,18.275H57.96
	c-19.059,0-36.509-6.865-50.019-18.254C2.759,299.196,0,277.922,0,256c0-1.912,0.021-3.824,0.063-5.726
	c10.94-12.236,25.694-20.982,42.381-24.377c0.69-79.161,65.066-143.13,144.394-143.13c42.621,0,80.917,18.453,107.342,47.804
	c16.478-12.006,36.77-19.111,58.713-19.111c55.077,0,99.736,44.648,99.736,99.715c0,4.483-0.313,8.903-0.878,13.228
	c0.763-0.01,1.515-0.052,2.288-0.052c23.019,0,43.687,10.021,57.898,25.934C511.979,252.186,512,254.088,512,256z"/>
<g>
	<path style="fill:#D6D6D6;" d="M195.051,191.583c-8.579,0-13.444,4.738-13.444,14.726v35.724c0,9.988,4.865,14.725,13.7,14.725
		c11.653,0,12.677-8.323,13.061-13.701c0.256-3.97,3.841-5.25,8.195-5.25c5.763,0,8.451,1.665,8.451,8.195
		c0,15.494-12.677,25.353-30.603,25.353c-16.133,0-29.45-7.939-29.45-29.323v-35.724c0-21.384,13.445-29.323,29.579-29.323
		c17.798,0,30.474,9.475,30.474,24.328c0,6.658-2.689,8.195-8.324,8.195c-4.738,0-8.195-1.409-8.323-5.25
		C208.112,200.29,207.216,191.583,195.051,191.583z"/>
	<path style="fill:#D6D6D6;" d="M239.1,242.033v-35.724c0-21.384,13.061-29.323,29.964-29.323c16.901,0,30.09,7.939,30.09,29.323
		v35.724c0,21.384-13.189,29.323-30.09,29.323C252.161,271.356,239.1,263.417,239.1,242.033z M282.507,206.309
		c0-10.116-5.121-14.726-13.444-14.726c-8.451,0-13.317,4.61-13.317,14.726v35.724c0,10.116,4.866,14.725,13.317,14.725
		c8.323,0,13.444-4.61,13.444-14.725V206.309z"/>
	<path style="fill:#D6D6D6;" d="M334.072,202.979c10.728,0,20.717,7.029,20.717,18.775c0,19.977-29.319,26.452-29.319,36.07v2.22
		h25.712c2.035,0,3.792,2.404,3.792,5.18c0,2.774-1.758,5.364-3.792,5.364h-32.925c-2.127,0-5.273-1.48-5.273-3.792v-8.971
		c0-14.798,29.781-22.66,29.781-35.7c0-3.792-2.497-8.232-8.602-8.232c-4.532,0-8.232,2.404-8.232,8.139
		c0,2.22-2.312,4.44-6.289,4.44c-3.145,0-5.457-1.48-5.457-6.474C314.186,209.453,323.804,202.979,334.072,202.979z"/>
</g>
<g>
</g>
<g>
</g>
<g>
</g>
<g>
</g>
<g>
</g>
<g>
</g>
<g>
</g>
<g>
</g>
<g>
</g>
<g>
</g>
<g>
</g>
<g>
</g>
<g>
</g>
<g>
</g>
<g>
</g>
</svg>
