<?xml version="1.0" encoding="iso-8859-1"?>
<!-- Generator: Adobe Illustrator 19.0.0, SVG Export Plug-In . SVG Version: 6.00 Build 0)  -->
<svg version="1.1" id="Capa_1" xmlns="http://www.w3.org/2000/svg" xmlns:xlink="http://www.w3.org/1999/xlink" x="0px" y="0px"
	 viewBox="0 0 512 512" style="enable-background:new 0 0 512 512;" xml:space="preserve">
<path style="fill:#E8E8E8;" d="M512,256c0,37.136-7.91,72.422-22.131,104.27c-26.143,58.556-73.623,105.482-132.566,130.905
	c-2.476,1.066-4.974,2.1-7.481,3.082c-7.753,3.062-15.694,5.747-23.792,8.046C303.773,508.625,280.283,512,256,512
	c-21.577,0-42.527-2.664-62.548-7.701c-2.508-0.627-5.005-1.296-7.481-2.006c-8.098-2.288-16.039-4.974-23.792-8.025
	C105.106,471.771,58.065,429.37,29.602,375.609c-2.664-5.026-5.162-10.146-7.481-15.36C7.899,328.401,0,293.125,0,256
	C0,114.615,114.615,0,256,0S512,114.615,512,256z"/>
<circle style="fill:#F4F4F4;" cx="256" cy="213.295" r="213.295"/>
<path style="fill:#EF4152;" d="M162.179,232.218v262.05c-57.072-22.497-104.114-64.899-132.577-118.659
	c-2.664-5.026-5.162-10.146-7.481-15.36V232.218H162.179z"/>
<path style="fill:#FF525D;" d="M162.179,252.667v241.601c-57.072-22.497-104.114-64.899-132.577-118.659V264.631
	c0-6.614,5.36-11.964,11.975-11.964H162.179z"/>
<path style="fill:#EF4152;" d="M162.178,229.777H22.124l14.365-66.312c0.967-4.473,4.926-7.661,9.5-7.661h92.323
	c4.575,0,8.531,3.189,9.496,7.661L162.178,229.777z"/>
<path style="fill:#FF525D;" d="M162.178,229.777H29.255l14.369-66.313c0.967-4.473,4.921-7.661,9.496-7.661h85.192
	c4.575,0,8.531,3.189,9.496,7.661L162.178,229.777z"/>
<path style="fill:#EF4152;" d="M171.047,226.747v12.787c0,3.393-2.752,6.145-6.149,6.145H19.4c-3.397,0-6.145-2.752-6.145-6.145
	v-12.787c0-3.393,2.748-6.145,6.145-6.145h145.498C168.293,220.602,171.047,223.354,171.047,226.747z"/>
<path style="fill:#FF525D;" d="M171.047,226.747v12.787c0,3.393-2.752,6.145-6.149,6.145H29.039c-3.393,0-6.145-2.752-6.145-6.145
	v-12.787c0-3.393,2.752-6.145,6.145-6.145h135.859C168.293,220.602,171.047,223.354,171.047,226.747z"/>
<path style="fill:#EF4152;" d="M119.483,201.032H68.809c-5.429,0-9.829-4.401-9.829-9.829v-35.4h70.333v35.4
	C129.312,196.631,124.911,201.032,119.483,201.032z"/>
<path style="fill:#279FC9;" d="M326.029,232.218v270.085C303.773,508.625,280.283,512,256,512c-21.577,0-42.527-2.664-62.548-7.701
	c-2.508-0.627-5.005-1.296-7.481-2.006V232.218H326.029z"/>
<path style="fill:#34ABE0;" d="M326.029,252.667v249.637C303.773,508.625,280.283,512,256,512c-21.577,0-42.527-2.664-62.548-7.701
	V264.631c0-6.614,5.36-11.964,11.964-11.964H326.029z"/>
<path style="fill:#279FC9;" d="M326.024,229.777H185.97l14.365-66.312c0.967-4.473,4.926-7.661,9.5-7.661h92.323
	c4.575,0,8.531,3.189,9.496,7.661L326.024,229.777z"/>
<path style="fill:#34ABE0;" d="M326.024,229.777H193.101l14.369-66.312c0.967-4.473,4.921-7.661,9.496-7.661h85.192
	c4.575,0,8.531,3.189,9.496,7.661L326.024,229.777z"/>
<path style="fill:#279FC9;" d="M334.892,226.747v12.787c0,3.393-2.752,6.145-6.149,6.145H183.246c-3.397,0-6.145-2.752-6.145-6.145
	v-12.787c0-3.393,2.748-6.145,6.145-6.145h145.498C332.14,220.602,334.892,223.354,334.892,226.747z"/>
<path style="fill:#34ABE0;" d="M334.892,226.747v12.787c0,3.393-2.752,6.145-6.149,6.145H192.885c-3.393,0-6.145-2.752-6.145-6.145
	v-12.787c0-3.393,2.752-6.145,6.145-6.145h135.859C332.14,220.602,334.892,223.354,334.892,226.747z"/>
<path style="fill:#279FC9;" d="M283.329,201.032h-50.674c-5.429,0-9.829-4.401-9.829-9.829v-35.4h70.333v35.4
	C293.159,196.631,288.758,201.032,283.329,201.032z"/>
<path style="fill:#EDBB4C;" d="M489.869,232.218V360.27c-26.143,58.556-73.623,105.482-132.566,130.905
	c-2.476,1.066-4.974,2.1-7.481,3.082V232.218H489.869z"/>
<path style="fill:#FFD15C;" d="M489.869,252.667V360.27c-26.143,58.556-73.623,105.482-132.566,130.905V264.631
	c0-6.614,5.35-11.964,11.964-11.964H489.869z"/>
<path style="fill:#EDBB4C;" d="M489.87,229.777H349.816l14.365-66.312c0.967-4.473,4.926-7.661,9.5-7.661h92.323
	c4.575,0,8.531,3.189,9.496,7.661L489.87,229.777z"/>
<path style="fill:#FFD15C;" d="M489.87,229.777H356.948l14.369-66.312c0.967-4.473,4.921-7.661,9.497-7.661h85.192
	c4.575,0,8.531,3.189,9.496,7.661L489.87,229.777z"/>
<path style="fill:#EDBB4C;" d="M498.738,226.747v12.787c0,3.393-2.752,6.145-6.149,6.145H347.092c-3.397,0-6.145-2.752-6.145-6.145
	v-12.787c0-3.393,2.748-6.145,6.145-6.145H492.59C495.986,220.602,498.738,223.354,498.738,226.747z"/>
<path style="fill:#FFD15C;" d="M498.738,226.747v12.787c0,3.393-2.752,6.145-6.149,6.145H356.731c-3.393,0-6.145-2.752-6.145-6.145
	v-12.787c0-3.393,2.752-6.145,6.145-6.145H492.59C495.986,220.602,498.738,223.354,498.738,226.747z"/>
<path style="fill:#EDBB4C;" d="M447.176,201.032h-50.674c-5.429,0-9.829-4.401-9.829-9.829v-35.4h70.333v35.4
	C457.005,196.631,452.604,201.032,447.176,201.032z"/>
<g>
</g>
<g>
</g>
<g>
</g>
<g>
</g>
<g>
</g>
<g>
</g>
<g>
</g>
<g>
</g>
<g>
</g>
<g>
</g>
<g>
</g>
<g>
</g>
<g>
</g>
<g>
</g>
<g>
</g>
</svg>
