<?xml version="1.0" encoding="iso-8859-1"?>
<!-- Generator: Adobe Illustrator 19.0.0, SVG Export Plug-In . SVG Version: 6.00 Build 0)  -->
<svg version="1.1" id="Capa_1" xmlns="http://www.w3.org/2000/svg" xmlns:xlink="http://www.w3.org/1999/xlink" x="0px" y="0px"
	 viewBox="0 0 512 512" style="enable-background:new 0 0 512 512;" xml:space="preserve">
<path style="fill:#34ABE0;" d="M512,256c0,61.336-21.577,117.656-57.563,161.74C407.5,475.272,336.039,512,256,512
	c-80.05,0-151.521-36.739-198.447-94.281C21.567,373.635,0,317.325,0,256C0,114.615,114.615,0,256,0S512,114.615,512,256z"/>
<circle style="fill:#72BBE8;" cx="256" cy="213.295" r="213.295"/>
<rect x="326.677" y="55.756" style="fill:#FF525D;" width="124.395" height="124.395"/>
<path style="fill:#E8E8E8;" d="M454.437,183.254V417.74C407.5,475.272,336.039,512,256,512c-80.05,0-151.521-36.739-198.447-94.281
	V183.254L253.022,73.352L454.437,183.254z"/>
<path style="fill:#4BC999;" d="M246.514,382.964v66.268c-31.054,0-51.197-0.168-64.182-3.903
	c-7.487-2.154-13.825-7.166-17.782-13.875l0,0c0-0.003,0-0.006-0.003-0.009c-2.478-6.857-6.401-22.622-0.402-34.464
	c3.974-7.848,14.142-8.077,17.209-14.016h65.16V382.964z"/>
<path style="fill:#1E9E67;" d="M192.008,302.548l33.061,66.119l-28.146-15.188c0,0-5.189,9.382-15.569,29.484
	c-3.068,5.939-6.588,12.817-10.562,20.665c-5.999,11.843-8.724,20.96-6.245,27.816l-34.887-59.158
	c-3.461-5.873-3.702-13.108-0.631-19.196l14.433-28.65l-26.059-15.191L192.008,302.548z"/>
<path style="fill:#4BC999;" d="M307.605,329.26l57.39-33.134c15.527,26.895,25.453,44.422,28.711,57.535
	c1.879,7.56,0.706,15.555-3.125,22.338l0,0c-0.002,0.001-0.005,0.003-0.006,0.007c-4.699,5.575-16.39,16.854-29.646,17.58
	c-8.783,0.483-14.066-8.209-20.743-7.896L307.605,329.26z"/>
<path style="fill:#1E9E67;" d="M265.216,416.672l40.73-61.691l0.921,31.97c0,0,10.72-0.197,33.318-1.259
	c6.677-0.312,14.393-0.702,23.177-1.186c13.256-0.726,22.513-2.925,27.212-8.499l-33.789,59.792
	c-3.356,5.934-9.501,9.76-16.309,10.145l-32.028,1.825l-0.125,30.163L265.216,416.672z"/>
<path style="fill:#4BC999;" d="M229.024,304.448l-57.39-33.134c15.527-26.895,25.744-44.254,35.471-53.631
	c5.608-5.406,13.119-8.389,20.907-8.463l0,0c0.002,0.001,0.005,0.003,0.009,0.002c7.177,1.282,22.791,5.768,30.048,16.883
	c4.81,7.365-0.076,16.286,3.534,21.913L229.024,304.448z"/>
<path style="fill:#1E9E67;" d="M325.919,297.452l-73.792-4.428l27.226-16.782c0,0-5.531-9.185-17.75-28.225
	c-3.609-5.627-7.805-12.114-12.615-19.479c-7.257-11.117-13.79-18.035-20.966-19.317l68.676-0.633
	c6.817-0.061,13.203,3.348,16.94,9.051l17.595,26.825l26.184-14.972L325.919,297.452z"/>
<polygon style="fill:#D6D6D6;" points="454.437,192.327 454.437,240.277 256,128.702 57.553,240.277 57.553,192.327 256,80.752 "/>
<polygon style="fill:#5C5560;" points="20.547,229.711 0.063,193.279 255.997,49.383 511.931,193.279 491.447,229.711 
	255.997,97.332 "/>
<g>
</g>
<g>
</g>
<g>
</g>
<g>
</g>
<g>
</g>
<g>
</g>
<g>
</g>
<g>
</g>
<g>
</g>
<g>
</g>
<g>
</g>
<g>
</g>
<g>
</g>
<g>
</g>
<g>
</g>
</svg>
