<?xml version="1.0" encoding="iso-8859-1"?>
<!-- Generator: Adobe Illustrator 19.0.0, SVG Export Plug-In . SVG Version: 6.00 Build 0)  -->
<svg version="1.1" id="Capa_1" xmlns="http://www.w3.org/2000/svg" xmlns:xlink="http://www.w3.org/1999/xlink" x="0px" y="0px"
	 viewBox="0 0 511.999 511.999" style="enable-background:new 0 0 511.999 511.999;" xml:space="preserve">
<circle style="fill:#FFD15C;" cx="255.999" cy="255.999" r="255.999"/>
<circle style="fill:#FFDC8D;" cx="255.999" cy="213.295" r="213.295"/>
<g>
	<path style="fill:#FFFFFF;" d="M364.823,283.679l109.574,28.339c-1.878,7.637-4.14,15.095-6.789,22.398l-106.026-39.628
		C362.843,291.162,363.949,287.459,364.823,283.679z"/>
	<path style="fill:#FFFFFF;" d="M357.185,305.486l101.268,50.505c-2.829,5.889-5.966,11.597-9.335,17.178l-96.485-59.12
		C354.279,311.271,355.796,308.418,357.185,305.486z"/>
	<path style="fill:#FFFFFF;" d="M347.362,322.175l90.956,67.324c-4.578,6.352-9.515,12.421-14.761,18.232l-83.447-76.453
		C342.682,328.373,345.099,325.339,347.362,322.175z"/>
	<path style="fill:#FFFFFF;" d="M333.347,338.274l76.453,83.421c-4.784,4.474-9.772,8.718-14.941,12.729l-68.892-89.799
		C328.512,342.619,330.981,340.485,333.347,338.274z"/>
	<path style="fill:#FFFFFF;" d="M318.072,350.334l60.792,95.456c-8.769,5.683-17.949,10.749-27.49,15.121l-46.932-102.965
		C309.174,355.734,313.726,353.188,318.072,350.334z"/>
	<path style="fill:#FFFFFF;" d="M295.416,361.674l37.776,106.694c-9.798,3.523-19.904,6.352-30.268,8.487l-22.552-110.912
		C285.516,364.889,290.556,363.449,295.416,361.674z"/>
	<path style="fill:#FFFFFF;" d="M270.703,367.512l12.806,112.403c-8.357,0.977-16.895,1.466-25.51,1.466
		c-7.278,0-14.478-0.361-21.575-1.054l10.826-112.608c3.523,0.334,7.123,0.514,10.749,0.514
		C262.295,368.232,266.537,367.975,270.703,367.512z"/>
	<path style="fill:#FFFFFF;" d="M237.556,366.303L216.932,477.6c-22.295-4.14-43.433-11.623-62.849-21.909l52.254-100.368
		C215.981,360.491,226.473,364.246,237.556,366.303z"/>
	<path style="fill:#FFFFFF;" d="M197.928,350.334l-60.792,95.456h-0.026c-22.013-14.272-41.351-32.273-57.089-53.154l89.773-68.866
		C177.51,334.21,187.051,343.211,197.928,350.334z"/>
	<path style="fill:#FFFFFF;" d="M164.369,315.72l-95.43,60.792c-17.615-28.133-29.11-60.483-32.633-95.199l112.429-12.806
		C150.278,285.71,155.807,301.731,164.369,315.72z"/>
	<path style="fill:#FFFFFF;" d="M63.149,150.266l99.468,54.002c-9.129,15.995-14.323,34.511-14.323,54.234c0,0.155,0,0.283,0,0.437
		l-113.123,2.957c-0.026-1.132-0.026-2.263-0.026-3.395c0-20.11,2.649-39.576,7.663-58.092c2.006-7.535,4.423-14.915,7.227-22.115
		c2.777-7.252,5.966-14.35,9.464-21.216C60.68,154.792,61.889,152.504,63.149,150.266z"/>
</g>
<path style="fill:#4BC999;" d="M410.965,116.579L309.817,0.001l-7.858,40.001c-1.25-0.267-2.498-0.522-3.77-0.749
	c-6.249-1.132-12.626-2.006-19.055-2.598c-6.943-0.668-14.015-1.002-21.138-1.002c-8.434,0-16.741,0.462-24.919,1.414
	c-6.429,0.668-12.78,1.671-19.03,2.932c-10.157,2.03-20.058,4.731-29.676,8.125c-6.095,2.11-12.035,4.5-17.872,7.149
	c-9.411,4.216-18.463,9.103-27.13,14.554c-5.451,3.42-10.724,7.072-15.841,10.981c-5.143,3.858-10.106,7.973-14.864,12.266
	c-4.784,4.321-9.36,8.846-13.732,13.552c-5.271,5.632-10.261,11.572-14.89,17.744c-2.341,3.086-4.578,6.223-6.737,9.411
	l94.351,62.463c19.776-28.648,52.872-47.445,90.339-47.445c7.406,0,14.658,0.745,21.652,2.134l-7.548,41.077L410.965,116.579z"/>
<g>
</g>
<g>
</g>
<g>
</g>
<g>
</g>
<g>
</g>
<g>
</g>
<g>
</g>
<g>
</g>
<g>
</g>
<g>
</g>
<g>
</g>
<g>
</g>
<g>
</g>
<g>
</g>
<g>
</g>
</svg>
