<?xml version="1.0" encoding="iso-8859-1"?>
<!-- Generator: Adobe Illustrator 19.0.0, SVG Export Plug-In . SVG Version: 6.00 Build 0)  -->
<svg version="1.1" id="Capa_1" xmlns="http://www.w3.org/2000/svg" xmlns:xlink="http://www.w3.org/1999/xlink" x="0px" y="0px"
	 viewBox="0 0 511.999 511.999" style="enable-background:new 0 0 511.999 511.999;" xml:space="preserve">
<circle style="fill:#494B5B;" cx="255.999" cy="255.999" r="255.999"/>
<circle style="fill:#5C5E70;" cx="255.999" cy="213.295" r="213.295"/>
<path style="fill:#34ABE0;" d="M100.99,320.723c0,3.82,0.06,7.627,0.179,11.418c6.233,198.556,303.431,198.556,309.664,0
	c0.119-3.792,0.179-7.597,0.179-11.418c0-122.251-61.392-230.146-155.011-294.593C162.382,90.578,100.99,198.473,100.99,320.723z"/>
<path style="fill:#279FC9;" d="M255.995,481.062c-75.859,0-151.719-49.644-154.826-148.918c-0.117-3.793-0.176-7.601-0.176-11.423
	c0-122.25,61.388-230.146,155.016-294.597c-45.88,64.451-75.962,172.346-75.962,294.597c0,3.822,0.029,7.63,0.088,11.423
	C181.668,431.418,218.839,481.062,255.995,481.062z"/>
<path style="fill:#E8E8E8;" d="M329.542,218.419l-25.247,33.309c20.18,15.294,31.753,38.565,31.753,63.845
	c0,44.138-35.909,80.047-80.046,80.047c-44.138,0-80.047-35.909-80.047-80.047c0-41.69,32.042-76.021,72.791-79.703v18.893
	l41.457-40.271l-41.457-40.271v19.732c-63.818,3.767-114.586,56.873-114.586,121.621c0,67.185,54.66,121.843,121.843,121.843
	s121.842-54.658,121.842-121.843C377.845,277.096,360.239,241.684,329.542,218.419z"/>
<g>
</g>
<g>
</g>
<g>
</g>
<g>
</g>
<g>
</g>
<g>
</g>
<g>
</g>
<g>
</g>
<g>
</g>
<g>
</g>
<g>
</g>
<g>
</g>
<g>
</g>
<g>
</g>
<g>
</g>
</svg>
